- 
http://www.Speed.Cd 
       
http://www.Speed.Cd      fast  and The Hottest Private Tracker on the net

(((--Submit for invite!!--)))

Please Seed back to make the speed Faster!!!

------------------nfo--------------------------
-








































          
          
              
              
                    
                    
                    
                    

Thor.2011.BRRip.Xvid.AC3-SiC

Poster:
[img]http://img263.imageshack.us/img263/7174/1816bfcec5c5230903d52a8.jpg[/img]

IMDB Link:
http://www.imdb.com/title/tt0800369/

Description:
The powerful but arrogant warrior Thor is cast out of the fantastic realm 
of Asgard and sent to live amongst humans on Earth, where he soon becomes 
one of their finest defenders.

MediaInfo:
General
Complete name                    : Thor.2011.BRRip.Xvid.AC3-SiC.avi
Format                           : AVI
Format/Info                      : Audio Video Interleave
File size                        : 1.20 GiB
Duration                         : 1h 54mn
Overall bit rate                 : 1 494 Kbps

Video
ID                               : 0
Format                           : MPEG-4 Visual
Format profile                   : Advanced Simple@L5
Format settings, BVOP            : Yes
Format settings, QPel            : No
Format settings, GMC             : No warppoints
Format settings, Matrix          : Default (H.263)
Muxing mode                      : Packed bitstream
Codec ID                         : XVID
Codec ID/Hint                    : XviD
Duration                         : 1h 54mn
Bit rate                         : 1 102 Kbps
Width                            : 720 pixels
Height                           : 304 pixels
Display aspect ratio             : 2.35:1
Frame rate                       : 23.976 fps
Resolution                       : 8 bits
Colorimetry                      : 4:2:0
Scan type                        : Progressive
Bits/(Pixel*Frame)               : 0.210
Stream size                      : 905 MiB (74%)
Writing library                  : XviD 64

Audio
ID                               : 1
Format                           : AC-3
Format/Info                      : Audio Coding 3
Format_Settings_ModeExtension    : CM (complete main)
Codec ID                         : 2000
Duration                         : 1h 54mn
Bit rate mode                    : Constant
Bit rate                         : 384 Kbps
Channel(s)                       : 6 channels
Channel positions                : Front: L C R, Side: L R, LFE
Sampling rate                    : 48.0 KHz
Stream size                      : 315 MiB (26%)
Alignment                        : Aligned on interleaves
Interleave, duration             : 64 ms (1.53 video frames)
Interleave, preload duration     : 192 ms
Title                            : 6ch English


Screenshots:
[img]http://img29.imageshack.us/img29/738/thor2011brripxvidac3sic.png[/img]
[img]http://img856.imageshack.us/img856/738/thor2011brripxvidac3sic.png[/img]
[img]http://img51.imageshack.us/img51/738/thor2011brripxvidac3sic.png[/img]
[img]http://img801.imageshack.us/img801/738/thor2011brripxvidac3sic.png[/img]
[img]http://img851.imageshack.us/img851/738/thor2011brripxvidac3sic.png[/img]

Note :   N/A

Source : BluRay-Felony Thanks!!!

Encoder: Bezauk

Enjoy!

Respects to CaptainHomey, Cyanide, CM8, Rx, THC, ELEKTRI4KA, 
Killerhz, PA, YeFsTe, BoxSlots, MrRep and everyone in the struggle...